<mxfile host="app.diagrams.net" agent="Mozilla/5.0 (Windows NT 10.0; Win64; x64) AppleWebKit/537.36 (KHTML, like Gecko) Chrome/140.0.0.0 Safari/537.36" version="28.2.1">
  <diagram name="Page-1" id="LJ3VMle6TrB_A5r01yn_">
    <mxGraphModel dx="786" dy="451" grid="1" gridSize="10" guides="1" tooltips="1" connect="1" arrows="1" fold="1" page="1" pageScale="1" pageWidth="850" pageHeight="1100" math="0" shadow="0">
      <root>
        <mxCell id="0" />
        <mxCell id="1" parent="0" />
        <mxCell id="vmmYQn0e2f4ze6wmCZxC-19" style="edgeStyle=orthogonalEdgeStyle;rounded=0;orthogonalLoop=1;jettySize=auto;html=1;exitX=0;exitY=0.75;exitDx=0;exitDy=0;" parent="1" source="vmmYQn0e2f4ze6wmCZxC-15" target="vmmYQn0e2f4ze6wmCZxC-5" edge="1">
          <mxGeometry relative="1" as="geometry" />
        </mxCell>
        <mxCell id="vmmYQn0e2f4ze6wmCZxC-15" value="" style="whiteSpace=wrap;html=1;fillColor=none;" parent="1" vertex="1">
          <mxGeometry x="660" y="10" width="120" height="380" as="geometry" />
        </mxCell>
        <mxCell id="vmmYQn0e2f4ze6wmCZxC-2" value="P2P" style="verticalLabelPosition=bottom;html=1;verticalAlign=top;align=center;strokeColor=none;fillColor=#00BEF2;shape=mxgraph.azure.cloud;" parent="1" vertex="1">
          <mxGeometry x="180" y="144.12" width="100" height="70" as="geometry" />
        </mxCell>
        <mxCell id="vmmYQn0e2f4ze6wmCZxC-3" value="Azure-OpenAi-Service" style="image;aspect=fixed;html=1;points=[];align=center;fontSize=12;image=img/lib/azure2/other/Azure_A.svg;" parent="1" vertex="1">
          <mxGeometry x="60" y="50" width="68" height="64.12" as="geometry" />
        </mxCell>
        <mxCell id="vmmYQn0e2f4ze6wmCZxC-4" value="AWS Bedrock" style="sketch=0;points=[[0,0,0],[0.25,0,0],[0.5,0,0],[0.75,0,0],[1,0,0],[0,1,0],[0.25,1,0],[0.5,1,0],[0.75,1,0],[1,1,0],[0,0.25,0],[0,0.5,0],[0,0.75,0],[1,0.25,0],[1,0.5,0],[1,0.75,0]];outlineConnect=0;fontColor=#232F3E;fillColor=#01A88D;strokeColor=#ffffff;dashed=0;verticalLabelPosition=bottom;verticalAlign=top;align=center;html=1;fontSize=12;fontStyle=0;aspect=fixed;shape=mxgraph.aws4.resourceIcon;resIcon=mxgraph.aws4.bedrock;" parent="1" vertex="1">
          <mxGeometry x="60" y="240" width="78" height="78" as="geometry" />
        </mxCell>
        <mxCell id="vmmYQn0e2f4ze6wmCZxC-5" value="Local LLM" style="sketch=0;outlineConnect=0;fontColor=#232F3E;gradientColor=none;fillColor=#01A88D;strokeColor=none;dashed=0;verticalLabelPosition=bottom;verticalAlign=top;align=center;html=1;fontSize=12;fontStyle=0;aspect=fixed;pointerEvents=1;shape=mxgraph.aws4.sagemaker_model;" parent="1" vertex="1">
          <mxGeometry x="480" y="300" width="78" height="78" as="geometry" />
        </mxCell>
        <mxCell id="vmmYQn0e2f4ze6wmCZxC-7" value="" style="aspect=fixed;sketch=0;html=1;dashed=0;whitespace=wrap;verticalLabelPosition=bottom;verticalAlign=top;fillColor=#2875E2;strokeColor=#ffffff;points=[[0.005,0.63,0],[0.1,0.2,0],[0.9,0.2,0],[0.5,0,0],[0.995,0.63,0],[0.72,0.99,0],[0.5,1,0],[0.28,0.99,0]];shape=mxgraph.kubernetes.icon2;kubernetesLabel=1;prIcon=api" parent="1" vertex="1">
          <mxGeometry x="700" y="220" width="50" height="48" as="geometry" />
        </mxCell>
        <mxCell id="vmmYQn0e2f4ze6wmCZxC-8" value="" style="image;aspect=fixed;html=1;points=[];align=center;fontSize=12;image=img/lib/azure2/other/App_Space_Component.svg;" parent="1" vertex="1">
          <mxGeometry x="700" y="290" width="56.68" height="68" as="geometry" />
        </mxCell>
        <mxCell id="vmmYQn0e2f4ze6wmCZxC-9" value="" style="image;html=1;image=img/lib/clip_art/computers/Software_128x128.png" parent="1" vertex="1">
          <mxGeometry x="700" y="154.12" width="50" height="50" as="geometry" />
        </mxCell>
        <mxCell id="VepgXHWQ_-sm7wlIEAmU-2" style="edgeStyle=orthogonalEdgeStyle;rounded=0;orthogonalLoop=1;jettySize=auto;html=1;entryX=0.5;entryY=0;entryDx=0;entryDy=0;" edge="1" parent="1" source="vmmYQn0e2f4ze6wmCZxC-10" target="VepgXHWQ_-sm7wlIEAmU-1">
          <mxGeometry relative="1" as="geometry" />
        </mxCell>
        <mxCell id="vmmYQn0e2f4ze6wmCZxC-10" value="End User" style="sketch=0;outlineConnect=0;fontColor=#232F3E;gradientColor=none;fillColor=#232F3D;strokeColor=none;dashed=0;verticalLabelPosition=bottom;verticalAlign=top;align=center;html=1;fontSize=12;fontStyle=0;aspect=fixed;pointerEvents=1;shape=mxgraph.aws4.user;" parent="1" vertex="1">
          <mxGeometry x="480" y="51" width="78" height="78" as="geometry" />
        </mxCell>
        <mxCell id="VepgXHWQ_-sm7wlIEAmU-5" style="edgeStyle=orthogonalEdgeStyle;rounded=0;orthogonalLoop=1;jettySize=auto;html=1;exitX=0;exitY=0.5;exitDx=0;exitDy=0;" edge="1" parent="1" source="vmmYQn0e2f4ze6wmCZxC-11" target="vmmYQn0e2f4ze6wmCZxC-2">
          <mxGeometry relative="1" as="geometry" />
        </mxCell>
        <mxCell id="vmmYQn0e2f4ze6wmCZxC-11" value="Firewall" style="image;html=1;image=img/lib/clip_art/networking/Firewall_02_128x128.png" parent="1" vertex="1">
          <mxGeometry x="300" y="139.12" width="80" height="80" as="geometry" />
        </mxCell>
        <mxCell id="vmmYQn0e2f4ze6wmCZxC-12" value="Database" style="shape=cylinder3;whiteSpace=wrap;html=1;boundedLbl=1;backgroundOutline=1;size=15;fillColor=#dae8fc;strokeColor=#6c8ebf;" parent="1" vertex="1">
          <mxGeometry x="690" y="50" width="60" height="80" as="geometry" />
        </mxCell>
        <mxCell id="vmmYQn0e2f4ze6wmCZxC-13" value="" style="html=1;outlineConnect=0;fillColor=#CCCCCC;strokeColor=#6881B3;gradientColor=none;gradientDirection=north;strokeWidth=2;shape=mxgraph.networks.comm_link_edge;html=1;rounded=0;exitX=0.067;exitY=0.819;exitDx=0;exitDy=0;exitPerimeter=0;" parent="1" source="vmmYQn0e2f4ze6wmCZxC-2" target="vmmYQn0e2f4ze6wmCZxC-3" edge="1">
          <mxGeometry width="100" height="100" relative="1" as="geometry">
            <mxPoint x="60" y="236" as="sourcePoint" />
            <mxPoint x="160" y="136" as="targetPoint" />
          </mxGeometry>
        </mxCell>
        <mxCell id="vmmYQn0e2f4ze6wmCZxC-14" value="" style="html=1;outlineConnect=0;fillColor=#CCCCCC;strokeColor=#6881B3;gradientColor=none;gradientDirection=north;strokeWidth=2;shape=mxgraph.networks.comm_link_edge;html=1;rounded=0;entryX=0.2;entryY=1;entryDx=0;entryDy=0;entryPerimeter=0;exitX=1;exitY=0.25;exitDx=0;exitDy=0;exitPerimeter=0;" parent="1" source="vmmYQn0e2f4ze6wmCZxC-4" target="vmmYQn0e2f4ze6wmCZxC-2" edge="1">
          <mxGeometry width="100" height="100" relative="1" as="geometry">
            <mxPoint x="190" y="366" as="sourcePoint" />
            <mxPoint x="290" y="266" as="targetPoint" />
          </mxGeometry>
        </mxCell>
        <mxCell id="vmmYQn0e2f4ze6wmCZxC-18" style="edgeStyle=orthogonalEdgeStyle;rounded=0;orthogonalLoop=1;jettySize=auto;html=1;entryX=-0.011;entryY=0.458;entryDx=0;entryDy=0;entryPerimeter=0;" parent="1" source="vmmYQn0e2f4ze6wmCZxC-10" target="vmmYQn0e2f4ze6wmCZxC-15" edge="1">
          <mxGeometry relative="1" as="geometry" />
        </mxCell>
        <mxCell id="VepgXHWQ_-sm7wlIEAmU-3" style="edgeStyle=orthogonalEdgeStyle;rounded=0;orthogonalLoop=1;jettySize=auto;html=1;" edge="1" parent="1" source="VepgXHWQ_-sm7wlIEAmU-1" target="vmmYQn0e2f4ze6wmCZxC-5">
          <mxGeometry relative="1" as="geometry" />
        </mxCell>
        <mxCell id="VepgXHWQ_-sm7wlIEAmU-4" style="edgeStyle=orthogonalEdgeStyle;rounded=0;orthogonalLoop=1;jettySize=auto;html=1;entryX=1;entryY=0.5;entryDx=0;entryDy=0;" edge="1" parent="1" source="VepgXHWQ_-sm7wlIEAmU-1" target="vmmYQn0e2f4ze6wmCZxC-11">
          <mxGeometry relative="1" as="geometry" />
        </mxCell>
        <mxCell id="VepgXHWQ_-sm7wlIEAmU-1" value="GPT" style="whiteSpace=wrap;html=1;fillColor=#d5e8d4;strokeColor=#82b366;" vertex="1" parent="1">
          <mxGeometry x="474.5" y="190" width="89" height="40" as="geometry" />
        </mxCell>
      </root>
    </mxGraphModel>
  </diagram>
</mxfile>
